<svg width="436" height="153" viewBox="0 0 436 153" fill="none" xmlns="http://www.w3.org/2000/svg">
<rect x="137.659" y="8.85168" width="4.48605" height="141.627" fill="white"/>
<path d="M160.758 74V7.72293H170.004V67.3723H186.942V74H160.758ZM193.771 74V7.72293H202.853V74H193.771ZM213.576 74V7.72293H228.795C231.795 7.72293 234.387 8.05023 236.569 8.70482C238.805 9.35941 240.66 10.3686 242.133 11.7323C243.605 13.096 244.696 14.8416 245.405 16.969C246.115 19.0419 246.469 21.4966 246.469 24.3331C246.469 27.0606 246.115 29.4334 245.405 31.4518C244.751 33.4155 243.714 34.9702 242.296 36.1157C240.932 37.2612 239.16 37.9976 236.978 38.3249C239.651 38.925 241.805 39.9614 243.442 41.4342C245.078 42.8525 246.278 44.7072 247.042 46.9982C247.86 49.2347 248.269 51.9349 248.269 55.0988C248.269 57.9353 247.942 60.5264 247.287 62.872C246.633 65.2176 245.596 67.2086 244.178 68.8451C242.814 70.4816 241.042 71.7635 238.86 72.6908C236.732 73.5636 234.196 74 231.25 74H213.576ZM222.822 67.3723H229.041C233.186 67.3723 235.941 66.4177 237.305 64.5085C238.723 62.5447 239.432 59.4081 239.432 55.0988C239.432 52.3168 239.051 49.9984 238.287 48.1438C237.578 46.2345 236.405 44.8163 234.768 43.8889C233.186 42.9071 231.032 42.4161 228.304 42.4161H222.822V67.3723ZM222.822 35.3793H228.304C230.923 35.3793 232.968 35.0247 234.441 34.3156C235.914 33.5519 236.95 32.3518 237.55 30.7153C238.15 29.0789 238.45 26.9515 238.45 24.3331C238.45 21.2784 237.987 19.0691 237.059 17.7054C236.132 16.3417 234.687 15.4962 232.723 15.1689C230.759 14.787 228.195 14.5961 225.031 14.5961H222.822V35.3793ZM256.486 74V7.72293H269.823C274.241 7.72293 277.896 8.32297 280.787 9.52305C283.678 10.6686 285.806 12.5505 287.169 15.1689C288.588 17.7327 289.297 21.1147 289.297 25.315C289.297 27.8788 289.024 30.2244 288.479 32.3518C287.933 34.4247 287.06 36.1975 285.86 37.6703C284.66 39.0886 283.078 40.1251 281.114 40.7796L290.524 74H281.605L272.932 42.9071H265.732V74H256.486ZM265.732 36.2793H269.25C271.868 36.2793 273.996 35.9521 275.632 35.2975C277.269 34.6429 278.469 33.5246 279.232 31.9427C279.996 30.3608 280.378 28.1515 280.378 25.315C280.378 21.442 279.669 18.66 278.251 16.969C276.832 15.2234 274.023 14.3506 269.823 14.3506H265.732V36.2793ZM298.916 74V7.72293H324.608V14.5961H308.162V36.5248H321.499V43.0707H308.162V67.3723H324.772V74H298.916ZM332.236 74V7.72293H345.573C349.992 7.72293 353.647 8.32297 356.538 9.52305C359.429 10.6686 361.556 12.5505 362.92 15.1689C364.338 17.7327 365.047 21.1147 365.047 25.315C365.047 27.8788 364.775 30.2244 364.229 32.3518C363.684 34.4247 362.811 36.1975 361.611 37.6703C360.411 39.0886 358.829 40.1251 356.865 40.7796L366.275 74H357.356L348.683 42.9071H341.482V74H332.236ZM341.482 36.2793H345.001C347.619 36.2793 349.746 35.9521 351.383 35.2975C353.019 34.6429 354.219 33.5246 354.983 31.9427C355.747 30.3608 356.129 28.1515 356.129 25.315C356.129 21.442 355.42 18.66 354.001 16.969C352.583 15.2234 349.774 14.3506 345.573 14.3506H341.482V36.2793ZM375.157 74V7.72293H384.24V74H375.157ZM391.362 74L405.436 7.72293H414.354L428.51 74H419.755L416.727 57.308H403.226L400.035 74H391.362ZM404.454 50.6803H415.5L409.936 20.8147L404.454 50.6803ZM160.758 149V82.7229H167.059L185.878 126.744V82.7229H193.57V149H187.678L168.613 103.752V149H160.758ZM200.387 149L214.461 82.7229H223.38L237.535 149H228.78L225.752 132.308H212.252L209.06 149H200.387ZM213.479 125.68H224.525L218.961 95.8147L213.479 125.68ZM244.26 149V82.7229H259.479C262.479 82.7229 265.07 83.0502 267.252 83.7048C269.489 84.3594 271.344 85.3686 272.816 86.7323C274.289 88.096 275.38 89.8416 276.089 91.969C276.798 94.0419 277.153 96.4966 277.153 99.3331C277.153 102.061 276.798 104.433 276.089 106.452C275.435 108.416 274.398 109.97 272.98 111.116C271.616 112.261 269.843 112.998 267.661 113.325C270.334 113.925 272.489 114.961 274.126 116.434C275.762 117.853 276.962 119.707 277.726 121.998C278.544 124.235 278.953 126.935 278.953 130.099C278.953 132.935 278.626 135.526 277.971 137.872C277.317 140.218 276.28 142.209 274.862 143.845C273.498 145.482 271.725 146.763 269.543 147.691C267.416 148.564 264.879 149 261.934 149H244.26ZM253.506 142.372H259.725C263.87 142.372 266.625 141.418 267.989 139.508C269.407 137.545 270.116 134.408 270.116 130.099C270.116 127.317 269.734 124.998 268.971 123.144C268.262 121.235 267.089 119.816 265.452 118.889C263.87 117.907 261.716 117.416 258.988 117.416H253.506V142.372ZM253.506 110.379H258.988C261.607 110.379 263.652 110.025 265.125 109.316C266.598 108.552 267.634 107.352 268.234 105.715C268.834 104.079 269.134 101.951 269.134 99.3331C269.134 96.2784 268.671 94.0691 267.743 92.7054C266.816 91.3417 265.37 90.4962 263.407 90.1689C261.443 89.787 258.879 89.5961 255.715 89.5961H253.506V110.379ZM304.27 149.736C299.47 149.736 295.788 148.782 293.224 146.873C290.661 144.963 288.915 142.29 287.988 138.854C287.06 135.363 286.597 131.299 286.597 126.662V82.7229H295.434V127.071C295.434 129.908 295.624 132.499 296.006 134.845C296.388 137.19 297.206 139.045 298.461 140.409C299.77 141.772 301.707 142.454 304.27 142.454C306.889 142.454 308.825 141.772 310.08 140.409C311.335 139.045 312.153 137.19 312.535 134.845C312.917 132.499 313.107 129.908 313.107 127.071V82.7229H321.863V126.662C321.863 131.299 321.399 135.363 320.472 138.854C319.544 142.29 317.799 144.963 315.235 146.873C312.726 148.782 309.071 149.736 304.27 149.736Z" fill="white"/>
<g clip-path="url(#clip0_438_277)">
<path d="M9.62755 112.682C9.0668 114.408 8.5509 116.112 8.05744 117.861C3.63868 116.002 0.8349 115.072 0.8349 115.072C1.12649 113.036 1.44052 111.045 1.82183 109.053C4.4686 110.182 7.07051 111.399 9.62755 112.682Z" fill="white"/>
<path d="M14.4949 98.962C13.6426 101.109 12.8126 103.277 12.05 105.468C9.26866 103.853 6.46488 102.326 3.59381 100.865C4.13214 98.5416 4.76018 96.2844 5.43309 94.0272C8.50603 95.5763 11.5341 97.2138 14.4949 98.962Z" fill="white"/>
<path d="M21.6276 82.9404C20.5061 85.1312 19.4743 87.322 18.4874 89.5571C15.392 87.3663 12.2518 85.3083 9.02185 83.3388C9.94149 80.9267 10.8836 78.581 11.8705 76.2795C15.2126 78.3818 18.465 80.6169 21.6276 82.9404Z" fill="white"/>
<path d="M30.0391 67.4943C28.626 69.8622 27.2353 72.2521 25.9119 74.6642C22.7268 72.0972 19.452 69.6409 16.0875 67.3173C17.3211 64.8167 18.6221 62.3825 19.9455 60.0146C23.3997 62.4046 26.7643 64.9052 30.0391 67.4943Z" fill="white"/>
<path d="M41.0524 51.0301C39.1682 53.575 37.3514 56.142 35.6018 58.7754C32.327 55.9871 28.9625 53.3316 25.5306 50.7424C27.2578 48.0427 28.9849 45.4535 30.7345 42.9972C34.256 45.5642 37.7103 48.264 41.0524 51.0301Z" fill="white"/>
<path d="M54.8021 34.2782C51.931 37.3985 49.1721 40.6293 46.5253 43.9487C43.2505 40.9613 39.8636 38.1066 36.4093 35.3626C39.2579 31.7112 42.0393 28.414 44.6188 25.4929C48.1179 28.3033 51.5048 31.2244 54.8021 34.2782Z" fill="white"/>
<path d="M71.2434 18.0796C67.8565 21.0449 64.5816 24.1209 61.3966 27.3296C58.2115 24.1209 54.9366 21.0449 51.5497 18.0796C57.4488 12.0604 61.3966 8.85168 61.3966 8.85168C61.3966 8.85168 65.3443 12.0604 71.2434 18.0796Z" fill="white"/>
<path d="M22.6596 119.719C22.0764 121.136 21.5156 122.552 20.9549 123.99C17.6576 122.22 14.5398 120.715 11.8033 119.476C12.3641 117.861 12.9473 116.245 13.5529 114.652C16.6483 116.245 19.6764 117.949 22.6596 119.719Z" fill="white"/>
<path d="M28.1325 107.725C27.1007 109.761 26.1362 111.819 25.2166 113.899C22.2782 111.819 19.2726 109.85 16.222 107.969C17.1193 105.844 18.0389 103.764 19.0034 101.684C22.1212 103.587 25.1493 105.601 28.1325 107.725Z" fill="white"/>
<path d="M35.4447 94.0714C34.3008 96.0188 33.1793 98.0104 32.0802 100.024C29.2091 97.5679 26.2708 95.2443 23.2427 92.9871C24.3193 90.8627 25.4408 88.7604 26.6072 86.7024C29.6353 89.0702 32.5737 91.5266 35.4447 94.0714Z" fill="white"/>
<path d="M44.4616 80.0194C42.8466 82.2987 41.299 84.6223 39.8186 86.968C37.0148 84.2239 34.1213 81.5463 31.1381 79.0014C32.5736 76.6557 34.054 74.3322 35.6017 72.0529C38.6298 74.6199 41.5906 77.2754 44.4616 80.0194Z" fill="white"/>
<path d="M56.0581 64.8609C54.017 67.2951 52.0207 69.7736 50.1141 72.2963C47.2879 69.3974 44.372 66.587 41.3887 63.8429C43.2504 61.3202 45.2019 58.8417 47.1982 56.3854C50.2262 59.1294 53.187 61.9398 56.0581 64.8609Z" fill="white"/>
<path d="M70.0321 49.8131C67.0714 52.6899 64.2003 55.6773 61.3965 58.7533C58.5927 55.6773 55.7217 52.6899 52.7609 49.8131C55.5646 46.6486 58.4357 43.5947 61.3965 40.6073C64.3573 43.5947 67.2284 46.6486 70.0321 49.8131Z" fill="white"/>
<path d="M86.3838 35.3626C82.9295 38.1066 79.5425 40.9613 76.2677 43.9487C73.621 40.6293 70.862 37.3985 67.991 34.2782C71.2882 31.2244 74.6752 28.3033 78.1743 25.4929C80.7538 28.414 83.5351 31.7112 86.3838 35.3626Z" fill="white"/>
<path d="M34.1663 127.155C33.5383 128.372 32.9551 129.633 32.3943 130.872C29.8597 129.146 27.2802 127.553 24.7905 126.137C25.3961 124.787 26.0017 123.459 26.6297 122.154C29.1868 123.747 31.699 125.407 34.1663 127.155Z" fill="white"/>
<path d="M39.6617 116.555C38.585 118.502 37.5308 120.45 36.5215 122.441C34.1663 120.494 31.7438 118.613 29.2765 116.798C30.2858 114.785 31.3401 112.815 32.4167 110.846C34.884 112.682 37.3065 114.585 39.6617 116.555Z" fill="white"/>
<path d="M46.6823 104.915C45.5159 106.685 44.372 108.5 43.2953 110.314C41.0747 108.079 38.7868 105.933 36.4541 103.83C37.598 101.949 38.7644 100.068 39.9756 98.2317C42.2635 100.4 44.4841 102.635 46.6823 104.915Z" fill="white"/>
<path d="M55.9011 91.77C54.1516 94.0493 52.4693 96.3507 50.8319 98.6964C48.7683 96.2843 46.615 93.9165 44.4169 91.6151C46.0318 89.3136 47.6693 87.0564 49.3964 84.8435C51.617 87.1007 53.7927 89.4021 55.9011 91.77Z" fill="white"/>
<path d="M67.6545 77.6517C65.5012 79.9974 63.4152 82.3874 61.3965 84.8437C59.3777 82.3874 57.2917 79.9974 55.1384 77.6517C57.1571 75.2175 59.2432 72.8275 61.3965 70.4818C63.5498 72.8275 65.6358 75.2175 67.6545 77.6517Z" fill="white"/>
<path d="M81.4043 63.8429C78.4211 66.587 75.5051 69.3974 72.6789 72.2963C70.7724 69.7736 68.7761 67.2951 66.7349 64.8609C69.606 61.9398 72.5668 59.1294 75.5949 56.3854C77.5912 58.8417 79.5426 61.3202 81.4043 63.8429Z" fill="white"/>
<path d="M97.2624 50.7424C93.8306 53.3316 90.4661 55.9871 87.1913 58.7754C85.4417 56.142 83.6249 53.575 81.7407 51.0301C85.0828 48.264 88.5371 45.5642 92.0586 42.9972C93.8082 45.4535 95.5353 48.0427 97.2624 50.7424Z" fill="white"/>
<path d="M46.615 136.648C45.9645 137.976 45.314 139.304 44.686 140.654C42.3308 138.396 39.8186 136.294 37.2391 134.325C37.8448 133.13 38.4952 131.935 39.1457 130.762C41.7028 132.643 44.1925 134.612 46.615 136.648Z" fill="white"/>
<path d="M51.6169 127.376C50.5403 129.257 49.486 131.182 48.4543 133.107C46.1888 130.895 43.8561 128.748 41.4785 126.646C42.5775 124.743 43.699 122.884 44.8654 121.025C47.1757 123.083 49.4188 125.207 51.6169 127.376Z" fill="white"/>
<path d="M57.6955 117.573C56.5964 119.21 55.5422 120.87 54.5328 122.552C52.5366 120.184 50.4954 117.838 48.387 115.581C49.486 113.899 50.6524 112.217 51.8412 110.558C53.8375 112.837 55.8114 115.183 57.6955 117.573Z" fill="white"/>
<path d="M66.8246 104.959C64.9405 107.327 63.1236 109.739 61.3965 112.195C59.6694 109.739 57.8525 107.327 55.9684 104.959C57.7179 102.635 59.5348 100.356 61.3965 98.1211C63.2582 100.356 65.0751 102.635 66.8246 104.959Z" fill="white"/>
<path d="M78.3762 91.6151C76.178 93.9165 74.0247 96.2843 71.9611 98.6964C70.3237 96.3507 68.6415 94.0493 66.8919 91.77C69.0003 89.4021 71.1761 87.1007 73.3967 84.8435C75.1238 87.0564 76.7612 89.3136 78.3762 91.6151Z" fill="white"/>
<path d="M91.6549 79.0014C88.6717 81.5463 85.7782 84.2239 82.9744 86.968C81.494 84.6223 79.9463 82.2987 78.3314 80.0194C81.2024 77.2754 84.1632 74.6199 87.1913 72.0529C88.739 74.3322 90.2194 76.6557 91.6549 79.0014Z" fill="white"/>
<path d="M106.706 67.3173C103.341 69.6409 100.066 72.0972 96.8811 74.6642C95.5577 72.2521 94.1671 69.8622 92.754 67.4943C96.0288 64.9052 99.3933 62.4046 102.848 60.0146C104.171 62.3825 105.472 64.8167 106.706 67.3173Z" fill="white"/>
<path d="M58.66 135.144L57.6955 142.181L51.8636 136.516L55.2955 131.094L58.66 135.144Z" fill="white"/>
<path d="M64.6938 126.956C63.5499 128.372 62.4732 129.788 61.3965 131.227C60.3199 129.788 59.2432 128.372 58.0993 126.956C59.176 125.407 60.275 123.88 61.3965 122.375C62.5181 123.88 63.6171 125.407 64.6938 126.956Z" fill="white"/>
<path d="M74.4061 115.581C72.2976 117.838 70.2565 120.184 68.2602 122.552C67.2508 120.87 66.1966 119.21 65.0975 117.573C66.9817 115.183 68.9555 112.837 70.9518 110.558C72.1406 112.217 73.307 113.899 74.4061 115.581Z" fill="white"/>
<path d="M86.3389 103.83C84.0062 105.933 81.7183 108.079 79.4977 110.314C78.421 108.5 77.2771 106.685 76.1107 104.915C78.3089 102.635 80.5295 100.4 82.8173 98.2317C84.0286 100.068 85.195 101.949 86.3389 103.83Z" fill="white"/>
<path d="M99.5504 92.9871C96.5223 95.2443 93.5839 97.5679 90.7129 100.024C89.6138 98.0104 88.4923 96.0188 87.3483 94.0714C90.2194 91.5266 93.1578 89.0702 96.1858 86.7024C97.3522 88.7604 98.4737 90.8627 99.5504 92.9871Z" fill="white"/>
<path d="M113.771 83.3388C110.541 85.3083 107.401 87.3663 104.306 89.5571C103.319 87.322 102.287 85.1312 101.165 82.9404C104.328 80.6169 107.58 78.3818 110.923 76.2795C111.909 78.581 112.852 80.9267 113.771 83.3388Z" fill="white"/>
<path d="M70.9294 136.516C69.7855 137.666 65.4564 142.181 65.4564 142.181L64.1779 135.144C64.1779 135.144 66.3312 132.311 67.4976 131.094C68.6864 132.886 69.8303 134.679 70.9294 136.516Z" fill="white"/>
<path d="M81.3146 126.646C78.937 128.748 76.6043 130.895 74.3388 133.107C73.307 131.182 72.2528 129.257 71.1761 127.376C73.3743 125.207 75.6173 123.083 77.9276 121.025C79.094 122.884 80.2155 124.743 81.3146 126.646Z" fill="white"/>
<path d="M93.5166 116.798C91.0493 118.613 88.6268 120.494 86.2716 122.441C85.2623 120.45 84.2081 118.502 83.1314 116.555C85.4866 114.585 87.909 112.682 90.3764 110.846C91.453 112.815 92.5073 114.785 93.5166 116.798Z" fill="white"/>
<path d="M106.571 107.969C103.521 109.85 100.515 111.819 97.5766 113.899C96.6569 111.819 95.6924 109.761 94.6606 107.725C97.6439 105.601 100.672 103.587 103.79 101.684C104.754 103.764 105.674 105.844 106.571 107.969Z" fill="white"/>
<path d="M119.199 100.865C116.328 102.326 113.524 103.853 110.743 105.468C109.98 103.277 109.151 101.109 108.298 98.962C111.259 97.2138 114.287 95.5763 117.36 94.0272C118.033 96.2844 118.661 98.5416 119.199 100.865Z" fill="white"/>
<path d="M85.5539 134.325C82.9745 136.294 80.4623 138.396 78.1071 140.654C77.4791 139.304 76.8286 137.976 76.1781 136.648C78.6006 134.612 81.0903 132.643 83.6474 130.762C84.2978 131.935 84.9483 133.13 85.5539 134.325Z" fill="white"/>
<path d="M98.0027 126.137C95.5129 127.553 92.9334 129.146 90.3988 130.872C89.8381 129.633 89.2549 128.372 88.6268 127.155C91.0942 125.407 93.6063 123.747 96.1634 122.154C96.7914 123.459 97.3971 124.787 98.0027 126.137Z" fill="white"/>
<path d="M110.99 119.476C108.253 120.715 105.135 122.22 101.838 123.99C101.277 122.552 100.717 121.136 100.133 119.719C103.117 117.949 106.145 116.245 109.24 114.652C109.846 116.245 110.429 117.861 110.99 119.476Z" fill="white"/>
<path d="M121.958 115.072C121.958 115.072 119.154 116.002 114.736 117.861C114.242 116.112 113.726 114.408 113.166 112.682C115.723 111.399 118.325 110.182 120.971 109.053C121.353 111.045 121.667 113.036 121.958 115.072Z" fill="white"/>
</g>
<defs>
<clipPath id="clip0_438_277">
<rect width="121.123" height="133.329" fill="white" transform="translate(0.8349 8.85168)"/>
</clipPath>
</defs>
</svg>
